<svg t="1752591109779" viewBox="0 0 1049 1024" version="1.1" xmlns="http://www.w3.org/2000/svg" p-id="5216">
    <path d="M539.136 723.456h-9.728c-13.824 0-24.576-10.752-24.576-24.576v-373.76c0-13.824 10.752-24.576 24.576-24.576h9.728c13.824 0 24.576 10.752 24.576 24.576v373.76c0 13.824-11.264 24.576-24.576 24.576z m-107.008-86.528h-9.728c-13.824 0-24.576-10.752-24.576-24.576V414.72c0-13.824 10.752-24.576 24.576-24.576h9.728c13.824 0 24.576 10.752 24.576 24.576v198.144c0 13.312-11.264 24.064-24.576 24.064z m-107.008-40.96h-9.728c-13.824 0-24.576-10.752-24.576-24.576V455.68c0-13.824 10.752-24.576 24.576-24.576h9.728c13.824 0 24.576 10.752 24.576 24.576v115.712c0 13.312-11.264 24.576-24.576 24.576z m428.032 0h-9.728c-13.824 0-24.576-10.752-24.576-24.576V455.68c0-13.824 10.752-24.576 24.576-24.576h9.728c13.824 0 24.576 10.752 24.576 24.576v115.712c0 13.312-11.264 24.576-24.576 24.576z m-107.008 40.96h-9.728c-13.824 0-24.576-10.752-24.576-24.576V414.72c0-13.824 10.752-24.576 24.576-24.576h9.728c13.824 0 24.576 10.752 24.576 24.576v198.144c0 13.312-11.264 24.064-24.576 24.064z" p-id="5217" fill="currentColor"></path>
    <path d="M174.08 625.664s0.512 0 0 0l0.512 166.912c0 35.328 28.672 64.512 64.512 64.512h247.296c12.288 0 22.528-10.24 22.528-22.528 0-13.824-11.264-25.088-25.088-25.088H243.712c-14.848 0-26.624-11.776-26.624-26.624V225.792c0-13.824 11.264-25.088 25.088-25.088h579.584c14.336 0 26.112 11.776 26.112 26.112V547.84c0 12.288 10.24 22.528 22.528 22.528 10.752 0 19.968-8.704 19.968-19.968v-332.8c0-35.328-28.672-64.512-64.512-64.512H238.592c-35.328 0-64 28.672-64 64v146.944c0 0.512-0.512 0.512-0.512 0.512M0 310.272" p-id="5218" fill="currentColor"></path>
    <path d="M839.168 774.144h-189.952c-12.288 0-22.528-10.24-22.528-22.528s10.24-22.528 22.528-22.528H839.168c12.288 0 22.528 10.24 22.528 22.528s-10.24 22.528-22.528 22.528z" p-id="5219" fill="currentColor" ></path><path d="M721.408 846.336v-189.952c0-12.288 10.24-22.528 22.528-22.528s22.528 10.24 22.528 22.528v189.952c0 12.288-10.24 22.528-22.528 22.528s-22.528-10.24-22.528-22.528z" p-id="5220" fill="currentColor"></path>
</svg>