<svg t="1752397521745" viewBox="0 0 1024 1024" version="1.1" xmlns="http://www.w3.org/2000/svg" p-id="33077"><path d="M992 716.8h-332.8c-19.2 0-32-12.8-32-32s12.8-32 32-32h332.8c19.2 0 32 12.8 32 32s-12.8 32-32 32z" p-id="33078" fill="currentColor"></path><path d="M825.6 883.2c-19.2 0-32-12.8-32-32V524.8c0-19.2 12.8-32 32-32s32 12.8 32 32v332.8c0 12.8-12.8 25.6-32 25.6zM473.6 985.6C211.2 985.6 0 774.4 0 512 0 249.6 211.2 38.4 473.6 38.4c153.6 0 294.4 76.8 384 198.4 6.4 12.8 6.4 32-6.4 44.8-12.8 12.8-32 6.4-44.8-6.4-76.8-108.8-204.8-172.8-339.2-172.8C243.2 102.4 57.6 288 57.6 512s185.6 409.6 409.6 409.6c19.2 0 32 12.8 32 32s-12.8 32-25.6 32z" p-id="33079" fill="currentColor" ></path><path d="M377.6 691.2c-12.8 0-19.2 0-32-6.4-19.2-12.8-32-32-32-57.6V396.8c0-25.6 12.8-44.8 32-57.6 19.2-12.8 44.8-12.8 64 0l211.2 115.2c19.2 12.8 32 32 32 57.6s-12.8 44.8-32 57.6l-211.2 115.2c-12.8 6.4-19.2 6.4-32 6.4z m0-300.8v236.8L588.8 512l12.8-32-12.8 32-211.2-121.6z" p-id="33080" fill="currentColor"></path></svg>