<svg t="1752397595722" viewBox="0 0 1024 1024" version="1.1" xmlns="http://www.w3.org/2000/svg" p-id="35843"><path d="M666.32704 25.6l0.00512 188.14976c0 43.47392 34.24768 79.22176 76.91264 81.90976l5.16096 0.16384 188.12416-0.02048 0.00512 649.4976c0 27.79136-21.632 50.70336-48.77312 52.92544l-4.33152 0.17408H140.5696c-27.79136 0-50.70336-21.632-52.92544-48.77312l-0.17408-4.33152V78.72512c0-27.79136 21.632-50.70336 48.77312-52.92544l4.33152-0.17408L666.32704 25.6zM185.43104 887.10144h-44.6464a11.1616 11.1616 0 0 0-10.93632 8.91392l-0.22528 2.24768v44.6464a11.1616 11.1616 0 0 0 8.91392 10.93632l2.24768 0.22528h44.6464a11.1616 11.1616 0 0 0 10.93632-8.91392l0.22528-2.24768v-44.6464a11.1616 11.1616 0 0 0-11.1616-11.1616z m683.55072 0h-44.6464a11.1616 11.1616 0 0 0-10.93632 8.91392l-0.22528 2.24768v44.6464a11.1616 11.1616 0 0 0 8.91392 10.93632l2.24768 0.22528h44.6464a11.1616 11.1616 0 0 0 10.93632-8.91392l0.22528-2.24768v-44.6464a11.1616 11.1616 0 0 0-11.1616-11.1616zM185.43104 749.29664h-44.6464a11.1616 11.1616 0 0 0-10.93632 8.91392l-0.22528 2.24768v44.6464a11.1616 11.1616 0 0 0 8.91392 10.93632l2.24768 0.22528h44.6464a11.1616 11.1616 0 0 0 10.93632-8.91392l0.22528-2.24768v-44.6464a11.1616 11.1616 0 0 0-11.1616-11.1616z m683.55072 0h-44.6464a11.1616 11.1616 0 0 0-10.93632 8.91392l-0.22528 2.24768v44.6464a11.1616 11.1616 0 0 0 8.91392 10.93632l2.24768 0.22528h44.6464a11.1616 11.1616 0 0 0 10.93632-8.91392l0.22528-2.24768v-44.6464a11.1616 11.1616 0 0 0-11.1616-11.1616z m-440.2176-321.29024a9.79456 9.79456 0 0 0-8.34048 5.9904L300.4672 722.0736a9.45664 9.45664 0 0 0 0.94208 9.1648c1.76128 2.70336 4.81792 4.34688 8.10496 4.34688h404.97152c3.64032 0 6.93248-1.9968 8.69376-5.1712 1.76128-3.28704 1.52576-7.168-0.5888-10.10176l-87.64416-128.4096c-1.87904-2.70336-5.05344-4.11136-8.34048-4.22912a9.99936 9.99936 0 0 0-8.10496 4.70016l-41.58976 67.67104-138.98752-227.33824a9.61024 9.61024 0 0 0-9.15968-4.70016z m-243.33312 183.48544h-44.6464a11.1616 11.1616 0 0 0-10.93632 8.91392l-0.22528 2.24768v44.6464a11.1616 11.1616 0 0 0 8.91392 10.93632l2.24768 0.22528h44.6464a11.1616 11.1616 0 0 0 10.93632-8.91392l0.22528-2.24768v-44.6464a11.1616 11.1616 0 0 0-11.1616-11.1616z m683.55072 0h-44.6464a11.1616 11.1616 0 0 0-10.93632 8.91392l-0.22528 2.24768v44.6464a11.1616 11.1616 0 0 0 8.91392 10.93632l2.24768 0.22528h44.6464a11.1616 11.1616 0 0 0 10.93632-8.91392l0.22528-2.24768v-44.6464a11.1616 11.1616 0 0 0-11.1616-11.1616zM185.43104 473.69216h-44.6464a11.1616 11.1616 0 0 0-10.93632 8.91392l-0.22528 2.24768v44.6464a11.1616 11.1616 0 0 0 8.91392 10.93632l2.24768 0.22528h44.6464a11.1616 11.1616 0 0 0 10.93632-8.91392l0.22528-2.24768v-44.6464a11.1616 11.1616 0 0 0-11.1616-11.1616z m683.55072 0h-44.6464a11.1616 11.1616 0 0 0-10.93632 8.91392l-0.22528 2.24768v44.6464a11.1616 11.1616 0 0 0 8.91392 10.93632l2.24768 0.22528h44.6464a11.1616 11.1616 0 0 0 10.93632-8.91392l0.22528-2.24768v-44.6464a11.1616 11.1616 0 0 0-11.1616-11.1616z m-214.41536-135.79264c-36.65408 0-66.49856 29.83936-66.49856 66.49856s29.83936 66.49856 66.49856 66.49856 66.49856-29.83936 66.49856-66.49856-29.83936-66.49856-66.49856-66.49856z m-469.13536-2.01216h-44.6464a11.1616 11.1616 0 0 0-10.93632 8.91392l-0.22528 2.24768v44.6464a11.1616 11.1616 0 0 0 8.91392 10.93632l2.24768 0.22528h44.6464a11.1616 11.1616 0 0 0 10.93632-8.91392l0.22528-2.24768v-44.6464a11.1616 11.1616 0 0 0-11.1616-11.1616z m683.55072 0h-44.6464a11.1616 11.1616 0 0 0-10.93632 8.91392l-0.22528 2.24768v44.6464a11.1616 11.1616 0 0 0 8.91392 10.93632l2.24768 0.22528h44.6464a11.1616 11.1616 0 0 0 10.93632-8.91392l0.22528-2.24768v-44.6464a11.1616 11.1616 0 0 0-11.1616-11.1616zM185.43104 198.08256h-44.6464a11.1616 11.1616 0 0 0-10.93632 8.91392l-0.22528 2.24768v44.6464a11.1616 11.1616 0 0 0 8.91392 10.93632l2.24768 0.22528h44.6464a11.1616 11.1616 0 0 0 10.93632-8.91392l0.22528-2.24768v-44.6464a11.1616 11.1616 0 0 0-11.1616-11.1616zM724.23936 25.62048l212.29568 212.29568h-159.19104c-29.13792 0-53.10464-23.84896-53.10464-53.10464V25.62048zM185.43104 60.27776h-44.6464a11.1616 11.1616 0 0 0-10.93632 8.91392l-0.22528 2.24768v44.6464a11.1616 11.1616 0 0 0 8.91392 10.93632l2.24768 0.22528h44.6464a11.1616 11.1616 0 0 0 10.93632-8.91392l0.22528-2.24768v-44.6464a11.1616 11.1616 0 0 0-11.1616-11.1616z" p-id="35844" fill="currentColor"></path></svg>