<svg t="1752672863872" viewBox="0 0 1024 1024" version="1.1" xmlns="http://www.w3.org/2000/svg" p-id="5042">
    <path d="M938.666667 576a234.666667 234.666667 0 0 1-234.666667 234.666667v-42.666667a192 192 0 0 0 38.4-380.16l-17.450667-3.541333 0.341334-17.792L725.333333 362.666667a192 192 0 1 0-384 0V384h-21.333333a192 192 0 1 0 0 384v42.666667a234.666667 234.666667 0 0 1-20.48-468.48 234.666667 234.666667 0 0 1 468.138667 7.893333A234.794667 234.794667 0 0 1 938.666667 576z m-469.333334-85.333333h42.666667v385.706666l-141.312-113.066666 26.624-33.28L469.333333 787.626667V490.666667z m128 384h-42.666666v-385.706667l141.312 113.066667-26.624 33.28L597.333333 577.706667v296.96z" p-id="5043" fill="currentColor"></path>
</svg>