<svg t="1752497387540" viewBox="0 0 1316 1024" version="1.1" xmlns="http://www.w3.org/2000/svg" p-id="2305"><path d="M700.46222 501.249536v522.721211h-84.541066V501.249536l-140.64825 141.584345c-16.586431 16.674189-43.294387 16.674189-59.880817 0a42.73858 42.73858 0 0 1 0-60.261106l212.873818-214.27796a41.94875 41.94875 0 0 1 29.925782-12.43251 41.978003 41.978003 0 0 1 29.925782 12.43251l212.873818 214.27796c16.557178 16.674189 16.557178 43.586916 0 60.261106a42.124268 42.124268 0 0 1-29.955035 12.43251c-10.882103 0-21.647193-4.095415-29.925782-12.43251l-140.64825-141.584345z m290.77446 395.207542h-3.802885a42.416798 42.416798 0 0 1-41.246679-43.586917c0.585059-23.548636 19.745751-42.563062 43.148122-41.539208 2.457249-0.29253 127.981717 1.316383 196.872447-66.696758 30.510841-30.130553 45.342094-69.036995 45.342094-119.205828 0-195.702328-171.334609-230.36709-178.589345-231.683473l-26.444679-4.973004-6.962206-26.181403c-2.925296-11.116126-75.852935-276.294244-361.508127-276.294244-287.264105 0-360.776803 273.515212-361.508127 276.294244l-6.815941 26.473932-26.737209 4.826739c-7.10847 1.316383-178.44308 35.981146-178.443079 231.683474 0 50.168833 14.831253 89.22154 45.342094 119.205828 69.329524 68.451935 195.702328 66.843022 197.018711 66.696758 22.671047-1.901443 42.592315 18.136838 43.177375 41.685473 0.438794 23.402371-17.873561 42.855592-41.246679 43.440651-6.552664 0.146265-162.617226 2.779032-257.777118-90.684188C23.958177 759.553207 0 698.853307 0 625.574632c0-194.824739 133.978574-283.46122 222.907585-309.496357C251.78026 237.241537 363.204799 1.170119 658.016169 1.170119s406.235909 235.925154 435.284102 314.761891c88.92901 26.035138 222.907585 114.525354 222.907585 309.496357 0 73.424939-23.98743 134.124839-71.055449 180.344523-88.197686 86.735038-228.699671 90.684188-253.974232 90.684188z" fill="currentColor" p-id="2306"></path></svg>